<mxfile host="app.diagrams.net" modified="2024-02-02T06:11:38.837Z" agent="Mozilla/5.0 (Windows NT 10.0; Win64; x64) AppleWebKit/537.36 (KHTML, like Gecko) Chrome/119.0.0.0 Safari/537.36" etag="LZLdRmEmXAPc0h5gcUck" version="23.1.0" type="device">
  <diagram name="第 1 页" id="OyteLu2lPC9mU-3AuGu1">
    <mxGraphModel dx="2933" dy="1560" grid="1" gridSize="10" guides="1" tooltips="1" connect="1" arrows="1" fold="1" page="1" pageScale="1" pageWidth="1654" pageHeight="2336" math="0" shadow="0">
      <root>
        <mxCell id="0" />
        <mxCell id="1" parent="0" />
        <mxCell id="Y3nn_n9hX_ELQsI9iIvF-1" value="阿里云OSS" style="rounded=0;whiteSpace=wrap;html=1;" vertex="1" parent="1">
          <mxGeometry x="20" y="190" width="120" height="60" as="geometry" />
        </mxCell>
        <mxCell id="Y3nn_n9hX_ELQsI9iIvF-2" value="" style="endArrow=classic;html=1;rounded=0;entryX=0;entryY=0.5;entryDx=0;entryDy=0;exitX=1;exitY=0.5;exitDx=0;exitDy=0;" edge="1" parent="1" source="Y3nn_n9hX_ELQsI9iIvF-1" target="Y3nn_n9hX_ELQsI9iIvF-4">
          <mxGeometry width="50" height="50" relative="1" as="geometry">
            <mxPoint x="140" y="180" as="sourcePoint" />
            <mxPoint x="240" y="60" as="targetPoint" />
            <Array as="points" />
          </mxGeometry>
        </mxCell>
        <mxCell id="Y3nn_n9hX_ELQsI9iIvF-3" value="" style="endArrow=classic;html=1;rounded=0;entryX=0;entryY=0.5;entryDx=0;entryDy=0;exitX=1;exitY=0.5;exitDx=0;exitDy=0;" edge="1" parent="1" source="Y3nn_n9hX_ELQsI9iIvF-1" target="Y3nn_n9hX_ELQsI9iIvF-5">
          <mxGeometry width="50" height="50" relative="1" as="geometry">
            <mxPoint x="170" y="160" as="sourcePoint" />
            <mxPoint x="230" y="200" as="targetPoint" />
          </mxGeometry>
        </mxCell>
        <mxCell id="Y3nn_n9hX_ELQsI9iIvF-25" style="edgeStyle=orthogonalEdgeStyle;rounded=0;orthogonalLoop=1;jettySize=auto;html=1;exitX=1;exitY=0.5;exitDx=0;exitDy=0;entryX=0;entryY=0.5;entryDx=0;entryDy=0;" edge="1" parent="1" source="Y3nn_n9hX_ELQsI9iIvF-4" target="Y3nn_n9hX_ELQsI9iIvF-7">
          <mxGeometry relative="1" as="geometry" />
        </mxCell>
        <mxCell id="Y3nn_n9hX_ELQsI9iIvF-4" value="服务端加密SSE" style="rounded=0;whiteSpace=wrap;html=1;" vertex="1" parent="1">
          <mxGeometry x="180" y="80" width="110" height="60" as="geometry" />
        </mxCell>
        <mxCell id="Y3nn_n9hX_ELQsI9iIvF-28" value="" style="edgeStyle=orthogonalEdgeStyle;rounded=0;orthogonalLoop=1;jettySize=auto;html=1;" edge="1" parent="1" source="Y3nn_n9hX_ELQsI9iIvF-5" target="Y3nn_n9hX_ELQsI9iIvF-27">
          <mxGeometry relative="1" as="geometry" />
        </mxCell>
        <mxCell id="Y3nn_n9hX_ELQsI9iIvF-29" value="" style="edgeStyle=orthogonalEdgeStyle;rounded=0;orthogonalLoop=1;jettySize=auto;html=1;" edge="1" parent="1" source="Y3nn_n9hX_ELQsI9iIvF-5" target="Y3nn_n9hX_ELQsI9iIvF-27">
          <mxGeometry relative="1" as="geometry" />
        </mxCell>
        <mxCell id="Y3nn_n9hX_ELQsI9iIvF-30" style="edgeStyle=orthogonalEdgeStyle;rounded=0;orthogonalLoop=1;jettySize=auto;html=1;exitX=1;exitY=0.5;exitDx=0;exitDy=0;entryX=0;entryY=0.5;entryDx=0;entryDy=0;" edge="1" parent="1" source="Y3nn_n9hX_ELQsI9iIvF-5" target="Y3nn_n9hX_ELQsI9iIvF-31">
          <mxGeometry relative="1" as="geometry">
            <mxPoint x="320" y="410" as="targetPoint" />
          </mxGeometry>
        </mxCell>
        <mxCell id="Y3nn_n9hX_ELQsI9iIvF-5" value="客户端加密（发送文件之前在本地加密）主密钥加密生成&lt;br&gt;加密密钥密文（放到meta）" style="rounded=0;whiteSpace=wrap;html=1;" vertex="1" parent="1">
          <mxGeometry x="180" y="290" width="120" height="80" as="geometry" />
        </mxCell>
        <mxCell id="Y3nn_n9hX_ELQsI9iIvF-7" value="SSE-KMS(CMK ID)" style="whiteSpace=wrap;html=1;rounded=0;" vertex="1" parent="1">
          <mxGeometry x="330" y="30" width="196" height="60" as="geometry" />
        </mxCell>
        <mxCell id="Y3nn_n9hX_ELQsI9iIvF-15" value="" style="edgeStyle=orthogonalEdgeStyle;rounded=0;orthogonalLoop=1;jettySize=auto;html=1;" edge="1" parent="1" source="Y3nn_n9hX_ELQsI9iIvF-11" target="Y3nn_n9hX_ELQsI9iIvF-14">
          <mxGeometry relative="1" as="geometry" />
        </mxCell>
        <mxCell id="Y3nn_n9hX_ELQsI9iIvF-16" value="" style="edgeStyle=orthogonalEdgeStyle;rounded=0;orthogonalLoop=1;jettySize=auto;html=1;" edge="1" parent="1" source="Y3nn_n9hX_ELQsI9iIvF-11" target="Y3nn_n9hX_ELQsI9iIvF-14">
          <mxGeometry relative="1" as="geometry" />
        </mxCell>
        <mxCell id="Y3nn_n9hX_ELQsI9iIvF-17" value="" style="edgeStyle=orthogonalEdgeStyle;rounded=0;orthogonalLoop=1;jettySize=auto;html=1;" edge="1" parent="1" source="Y3nn_n9hX_ELQsI9iIvF-11" target="Y3nn_n9hX_ELQsI9iIvF-14">
          <mxGeometry relative="1" as="geometry" />
        </mxCell>
        <mxCell id="Y3nn_n9hX_ELQsI9iIvF-18" value="" style="edgeStyle=orthogonalEdgeStyle;rounded=0;orthogonalLoop=1;jettySize=auto;html=1;" edge="1" parent="1" source="Y3nn_n9hX_ELQsI9iIvF-11" target="Y3nn_n9hX_ELQsI9iIvF-14">
          <mxGeometry relative="1" as="geometry" />
        </mxCell>
        <mxCell id="Y3nn_n9hX_ELQsI9iIvF-21" style="edgeStyle=orthogonalEdgeStyle;rounded=0;orthogonalLoop=1;jettySize=auto;html=1;exitX=1;exitY=0.5;exitDx=0;exitDy=0;entryX=0;entryY=0.5;entryDx=0;entryDy=0;" edge="1" parent="1" source="Y3nn_n9hX_ELQsI9iIvF-11" target="Y3nn_n9hX_ELQsI9iIvF-19">
          <mxGeometry relative="1" as="geometry" />
        </mxCell>
        <mxCell id="Y3nn_n9hX_ELQsI9iIvF-11" value="SSE-OSS（为每个对象使用不同的密钥进行AES256/SM4加密，定期轮转主密钥对加密密钥进行加密）" style="rounded=0;whiteSpace=wrap;html=1;" vertex="1" parent="1">
          <mxGeometry x="330" y="140" width="200" height="60" as="geometry" />
        </mxCell>
        <mxCell id="Y3nn_n9hX_ELQsI9iIvF-14" value="配置Bucket加密方式(所有上传至此Bucket的Object都会默认被加密)" style="rounded=0;whiteSpace=wrap;html=1;" vertex="1" parent="1">
          <mxGeometry x="580" y="110" width="220" height="50" as="geometry" />
        </mxCell>
        <mxCell id="Y3nn_n9hX_ELQsI9iIvF-20" value="" style="edgeStyle=orthogonalEdgeStyle;rounded=0;orthogonalLoop=1;jettySize=auto;html=1;endArrow=classic;endFill=1;strokeColor=none;" edge="1" parent="1" source="Y3nn_n9hX_ELQsI9iIvF-19" target="Y3nn_n9hX_ELQsI9iIvF-11">
          <mxGeometry relative="1" as="geometry" />
        </mxCell>
        <mxCell id="Y3nn_n9hX_ELQsI9iIvF-19" value="为目标Object配置加密方式(&lt;font style=&quot;font-size: 12px;&quot;&gt;请求中携带&lt;span style=&quot;box-sizing: border-box; padding: 0px; margin: 0px; color: rgb(24, 24, 24); font-family: help-font, &amp;quot;helvetica neue&amp;quot;, &amp;quot;pingfang SC&amp;quot;, arial, &amp;quot;hiragino sans gb&amp;quot;, &amp;quot;microsoft yahei ui&amp;quot;, &amp;quot;microsoft yahei&amp;quot;, simsun, sans-serif; letter-spacing: 0.4px; text-align: left; background-color: rgb(255, 255, 255);&quot; class=&quot;ph&quot; id=&quot;codeph-kqq-i26-fyd&quot; data-tag=&quot;ph&quot;&gt;&lt;code style=&quot;box-sizing: border-box; padding: 2px 0px; margin: 0px; font-family: Menlo, Monaco, Consolas, Courier, monospace; background-color: rgba(0, 0, 0, 0.04); border-radius: 3px;&quot; data-spm-anchor-id=&quot;a2c4g.11186623.0.i13.6b1b47802c3QX9&quot; class=&quot;code&quot; data-tag=&quot;code&quot;&gt;x-oss-server-side-encryption&lt;/code&gt;&lt;/span&gt;&lt;span style=&quot;color: rgb(24, 24, 24); font-family: help-font, &amp;quot;helvetica neue&amp;quot;, &amp;quot;pingfang SC&amp;quot;, arial, &amp;quot;hiragino sans gb&amp;quot;, &amp;quot;microsoft yahei ui&amp;quot;, &amp;quot;microsoft yahei&amp;quot;, simsun, sans-serif; letter-spacing: 0.4px; text-align: left; background-color: rgb(255, 255, 255);&quot;&gt;参数&lt;/span&gt;&lt;/font&gt;)" style="rounded=0;whiteSpace=wrap;html=1;fillColor=#d80073;strokeColor=#A50040;fontColor=#ffffff;" vertex="1" parent="1">
          <mxGeometry x="580" y="180" width="220" height="50" as="geometry" />
        </mxCell>
        <mxCell id="Y3nn_n9hX_ELQsI9iIvF-24" style="edgeStyle=orthogonalEdgeStyle;rounded=0;orthogonalLoop=1;jettySize=auto;html=1;exitX=1;exitY=0.5;exitDx=0;exitDy=0;entryX=0.001;entryY=0.64;entryDx=0;entryDy=0;entryPerimeter=0;" edge="1" parent="1" source="Y3nn_n9hX_ELQsI9iIvF-4" target="Y3nn_n9hX_ELQsI9iIvF-11">
          <mxGeometry relative="1" as="geometry" />
        </mxCell>
        <mxCell id="Y3nn_n9hX_ELQsI9iIvF-27" value="使用KMS托管用户主密钥（请求kms获取数据明文密钥和数据密文密钥，本地使用数据明文密钥对数据加密，将加密后的数据和数据密文密钥传给云端）" style="whiteSpace=wrap;html=1;rounded=0;" vertex="1" parent="1">
          <mxGeometry x="340" y="250" width="220" height="70" as="geometry" />
        </mxCell>
        <mxCell id="Y3nn_n9hX_ELQsI9iIvF-31" value="使用用户自主管理密钥(自己管理一个主密钥，sdk针对object生成一个一次性密钥，用主密钥加密一次性密钥得到加密密钥，一次性密钥加密数据得到密文，将加密密钥和密文传到云端保存)" style="whiteSpace=wrap;html=1;rounded=0;" vertex="1" parent="1">
          <mxGeometry x="340" y="360" width="230" height="80" as="geometry" />
        </mxCell>
        <mxCell id="Y3nn_n9hX_ELQsI9iIvF-35" style="rounded=0;orthogonalLoop=1;jettySize=auto;html=1;exitX=1;exitY=0.5;exitDx=0;exitDy=0;entryX=0;entryY=0.5;entryDx=0;entryDy=0;" edge="1" parent="1" source="Y3nn_n9hX_ELQsI9iIvF-32" target="Y3nn_n9hX_ELQsI9iIvF-33">
          <mxGeometry relative="1" as="geometry" />
        </mxCell>
        <mxCell id="Y3nn_n9hX_ELQsI9iIvF-78" style="rounded=0;orthogonalLoop=1;jettySize=auto;html=1;exitX=1;exitY=0.5;exitDx=0;exitDy=0;entryX=0;entryY=0.5;entryDx=0;entryDy=0;" edge="1" parent="1" source="Y3nn_n9hX_ELQsI9iIvF-32" target="Y3nn_n9hX_ELQsI9iIvF-73">
          <mxGeometry relative="1" as="geometry" />
        </mxCell>
        <mxCell id="Y3nn_n9hX_ELQsI9iIvF-32" value="AWS S3" style="rounded=0;whiteSpace=wrap;html=1;" vertex="1" parent="1">
          <mxGeometry x="20" y="680" width="120" height="60" as="geometry" />
        </mxCell>
        <mxCell id="Y3nn_n9hX_ELQsI9iIvF-37" value="" style="rounded=0;orthogonalLoop=1;jettySize=auto;html=1;exitX=1;exitY=0.5;exitDx=0;exitDy=0;entryX=0;entryY=0.5;entryDx=0;entryDy=0;" edge="1" parent="1" source="Y3nn_n9hX_ELQsI9iIvF-33" target="Y3nn_n9hX_ELQsI9iIvF-36">
          <mxGeometry relative="1" as="geometry" />
        </mxCell>
        <mxCell id="Y3nn_n9hX_ELQsI9iIvF-39" style="rounded=0;orthogonalLoop=1;jettySize=auto;html=1;exitX=1;exitY=0.5;exitDx=0;exitDy=0;entryX=0;entryY=0.5;entryDx=0;entryDy=0;" edge="1" parent="1" source="Y3nn_n9hX_ELQsI9iIvF-33" target="Y3nn_n9hX_ELQsI9iIvF-38">
          <mxGeometry relative="1" as="geometry" />
        </mxCell>
        <mxCell id="Y3nn_n9hX_ELQsI9iIvF-70" style="rounded=0;orthogonalLoop=1;jettySize=auto;html=1;exitX=1;exitY=0.5;exitDx=0;exitDy=0;entryX=0;entryY=0.5;entryDx=0;entryDy=0;" edge="1" parent="1" source="Y3nn_n9hX_ELQsI9iIvF-33" target="Y3nn_n9hX_ELQsI9iIvF-69">
          <mxGeometry relative="1" as="geometry" />
        </mxCell>
        <mxCell id="Y3nn_n9hX_ELQsI9iIvF-72" style="rounded=0;orthogonalLoop=1;jettySize=auto;html=1;exitX=1;exitY=0.5;exitDx=0;exitDy=0;entryX=0;entryY=0.5;entryDx=0;entryDy=0;" edge="1" parent="1" source="Y3nn_n9hX_ELQsI9iIvF-33" target="Y3nn_n9hX_ELQsI9iIvF-71">
          <mxGeometry relative="1" as="geometry" />
        </mxCell>
        <mxCell id="Y3nn_n9hX_ELQsI9iIvF-33" value="服务端加密SSE" style="whiteSpace=wrap;html=1;rounded=0;" vertex="1" parent="1">
          <mxGeometry x="190" y="590" width="120" height="60" as="geometry" />
        </mxCell>
        <mxCell id="Y3nn_n9hX_ELQsI9iIvF-36" value="托管式密钥的服务端加密sse-aws(每个object一个唯一密钥，用定期轮换密钥来加密密钥本身)" style="whiteSpace=wrap;html=1;rounded=0;fillColor=#d80073;fontColor=#ffffff;strokeColor=#A50040;" vertex="1" parent="1">
          <mxGeometry x="340" y="470" width="230" height="60" as="geometry" />
        </mxCell>
        <mxCell id="Y3nn_n9hX_ELQsI9iIvF-38" value="密钥存在KMS SSE-KMS(可将安全、高度可用的硬件和软件结合起来，以提供可扩展到云的密钥管理系统)" style="whiteSpace=wrap;html=1;rounded=0;" vertex="1" parent="1">
          <mxGeometry x="340" y="560" width="230" height="60" as="geometry" />
        </mxCell>
        <mxCell id="Y3nn_n9hX_ELQsI9iIvF-53" value="" style="shape=table;startSize=0;container=1;collapsible=0;childLayout=tableLayout;fontSize=16;" vertex="1" parent="1">
          <mxGeometry y="2050" width="1010" height="281" as="geometry" />
        </mxCell>
        <mxCell id="Y3nn_n9hX_ELQsI9iIvF-54" value="" style="shape=tableRow;horizontal=0;startSize=0;swimlaneHead=0;swimlaneBody=0;strokeColor=inherit;top=0;left=0;bottom=0;right=0;collapsible=0;dropTarget=0;fillColor=none;points=[[0,0.5],[1,0.5]];portConstraint=eastwest;fontSize=16;" vertex="1" parent="Y3nn_n9hX_ELQsI9iIvF-53">
          <mxGeometry width="1010" height="47" as="geometry" />
        </mxCell>
        <mxCell id="Y3nn_n9hX_ELQsI9iIvF-55" value="阿里云 OSS" style="shape=partialRectangle;html=1;whiteSpace=wrap;connectable=0;strokeColor=inherit;overflow=hidden;fillColor=none;top=0;left=0;bottom=0;right=0;pointerEvents=1;fontSize=16;" vertex="1" parent="Y3nn_n9hX_ELQsI9iIvF-54">
          <mxGeometry width="343" height="47" as="geometry">
            <mxRectangle width="343" height="47" as="alternateBounds" />
          </mxGeometry>
        </mxCell>
        <mxCell id="Y3nn_n9hX_ELQsI9iIvF-56" value="https://help.aliyun.com/zh/oss/user-guide/client-side-encryption?spm=a2c4g.11186623.0.0.58e19da9unGi0E" style="shape=partialRectangle;html=1;whiteSpace=wrap;connectable=0;strokeColor=inherit;overflow=hidden;fillColor=none;top=0;left=0;bottom=0;right=0;pointerEvents=1;fontSize=16;" vertex="1" parent="Y3nn_n9hX_ELQsI9iIvF-54">
          <mxGeometry x="343" width="667" height="47" as="geometry">
            <mxRectangle width="667" height="47" as="alternateBounds" />
          </mxGeometry>
        </mxCell>
        <mxCell id="Y3nn_n9hX_ELQsI9iIvF-58" value="" style="shape=tableRow;horizontal=0;startSize=0;swimlaneHead=0;swimlaneBody=0;strokeColor=inherit;top=0;left=0;bottom=0;right=0;collapsible=0;dropTarget=0;fillColor=none;points=[[0,0.5],[1,0.5]];portConstraint=eastwest;fontSize=16;" vertex="1" parent="Y3nn_n9hX_ELQsI9iIvF-53">
          <mxGeometry y="47" width="1010" height="46" as="geometry" />
        </mxCell>
        <mxCell id="Y3nn_n9hX_ELQsI9iIvF-59" value="AWS S3" style="shape=partialRectangle;html=1;whiteSpace=wrap;connectable=0;strokeColor=inherit;overflow=hidden;fillColor=none;top=0;left=0;bottom=0;right=0;pointerEvents=1;fontSize=16;" vertex="1" parent="Y3nn_n9hX_ELQsI9iIvF-58">
          <mxGeometry width="343" height="46" as="geometry">
            <mxRectangle width="343" height="46" as="alternateBounds" />
          </mxGeometry>
        </mxCell>
        <UserObject label="https://docs.aws.amazon.com/zh_cn/AmazonS3/latest/userguide/UsingDSSEncryption.html" link="https://docs.aws.amazon.com/zh_cn/AmazonS3/latest/userguide/UsingDSSEncryption.html" id="Y3nn_n9hX_ELQsI9iIvF-60">
          <mxCell style="shape=partialRectangle;html=1;whiteSpace=wrap;connectable=0;strokeColor=inherit;overflow=hidden;fillColor=none;top=0;left=0;bottom=0;right=0;pointerEvents=1;fontSize=16;" vertex="1" parent="Y3nn_n9hX_ELQsI9iIvF-58">
            <mxGeometry x="343" width="667" height="46" as="geometry">
              <mxRectangle width="667" height="46" as="alternateBounds" />
            </mxGeometry>
          </mxCell>
        </UserObject>
        <mxCell id="Y3nn_n9hX_ELQsI9iIvF-62" value="" style="shape=tableRow;horizontal=0;startSize=0;swimlaneHead=0;swimlaneBody=0;strokeColor=inherit;top=0;left=0;bottom=0;right=0;collapsible=0;dropTarget=0;fillColor=none;points=[[0,0.5],[1,0.5]];portConstraint=eastwest;fontSize=16;" vertex="1" parent="Y3nn_n9hX_ELQsI9iIvF-53">
          <mxGeometry y="93" width="1010" height="47" as="geometry" />
        </mxCell>
        <mxCell id="Y3nn_n9hX_ELQsI9iIvF-63" value="微软AZURE" style="shape=partialRectangle;html=1;whiteSpace=wrap;connectable=0;strokeColor=inherit;overflow=hidden;fillColor=none;top=0;left=0;bottom=0;right=0;pointerEvents=1;fontSize=16;" vertex="1" parent="Y3nn_n9hX_ELQsI9iIvF-62">
          <mxGeometry width="343" height="47" as="geometry">
            <mxRectangle width="343" height="47" as="alternateBounds" />
          </mxGeometry>
        </mxCell>
        <UserObject label="https://learn.microsoft.com/zh-cn/azure/storage/blobs/client-side-encryption?tabs=dotnet" link="https://learn.microsoft.com/zh-cn/azure/storage/blobs/client-side-encryption?tabs=dotnet" id="Y3nn_n9hX_ELQsI9iIvF-64">
          <mxCell style="shape=partialRectangle;html=1;whiteSpace=wrap;connectable=0;strokeColor=inherit;overflow=hidden;fillColor=none;top=0;left=0;bottom=0;right=0;pointerEvents=1;fontSize=16;" vertex="1" parent="Y3nn_n9hX_ELQsI9iIvF-62">
            <mxGeometry x="343" width="667" height="47" as="geometry">
              <mxRectangle width="667" height="47" as="alternateBounds" />
            </mxGeometry>
          </mxCell>
        </UserObject>
        <mxCell id="Y3nn_n9hX_ELQsI9iIvF-66" style="shape=tableRow;horizontal=0;startSize=0;swimlaneHead=0;swimlaneBody=0;strokeColor=inherit;top=0;left=0;bottom=0;right=0;collapsible=0;dropTarget=0;fillColor=none;points=[[0,0.5],[1,0.5]];portConstraint=eastwest;fontSize=16;" vertex="1" parent="Y3nn_n9hX_ELQsI9iIvF-53">
          <mxGeometry y="140" width="1010" height="47" as="geometry" />
        </mxCell>
        <mxCell id="Y3nn_n9hX_ELQsI9iIvF-67" value="腾讯云COS" style="shape=partialRectangle;html=1;whiteSpace=wrap;connectable=0;strokeColor=inherit;overflow=hidden;fillColor=none;top=0;left=0;bottom=0;right=0;pointerEvents=1;fontSize=16;" vertex="1" parent="Y3nn_n9hX_ELQsI9iIvF-66">
          <mxGeometry width="343" height="47" as="geometry">
            <mxRectangle width="343" height="47" as="alternateBounds" />
          </mxGeometry>
        </mxCell>
        <UserObject label="https://cloud.tencent.com/document/product/436/18145" link="https://cloud.tencent.com/document/product/436/18145" id="Y3nn_n9hX_ELQsI9iIvF-68">
          <mxCell style="shape=partialRectangle;html=1;whiteSpace=wrap;connectable=0;strokeColor=inherit;overflow=hidden;fillColor=none;top=0;left=0;bottom=0;right=0;pointerEvents=1;fontSize=16;" vertex="1" parent="Y3nn_n9hX_ELQsI9iIvF-66">
            <mxGeometry x="343" width="667" height="47" as="geometry">
              <mxRectangle width="667" height="47" as="alternateBounds" />
            </mxGeometry>
          </mxCell>
        </UserObject>
        <mxCell id="Y3nn_n9hX_ELQsI9iIvF-114" style="shape=tableRow;horizontal=0;startSize=0;swimlaneHead=0;swimlaneBody=0;strokeColor=inherit;top=0;left=0;bottom=0;right=0;collapsible=0;dropTarget=0;fillColor=none;points=[[0,0.5],[1,0.5]];portConstraint=eastwest;fontSize=16;" vertex="1" parent="Y3nn_n9hX_ELQsI9iIvF-53">
          <mxGeometry y="187" width="1010" height="47" as="geometry" />
        </mxCell>
        <mxCell id="Y3nn_n9hX_ELQsI9iIvF-115" value="华为云OBS" style="shape=partialRectangle;html=1;whiteSpace=wrap;connectable=0;strokeColor=inherit;overflow=hidden;fillColor=none;top=0;left=0;bottom=0;right=0;pointerEvents=1;fontSize=16;" vertex="1" parent="Y3nn_n9hX_ELQsI9iIvF-114">
          <mxGeometry width="343" height="47" as="geometry">
            <mxRectangle width="343" height="47" as="alternateBounds" />
          </mxGeometry>
        </mxCell>
        <mxCell id="Y3nn_n9hX_ELQsI9iIvF-116" value="https://support.huaweicloud.com/ugobs-obs/obs_41_0035.html" style="shape=partialRectangle;html=1;whiteSpace=wrap;connectable=0;strokeColor=inherit;overflow=hidden;fillColor=none;top=0;left=0;bottom=0;right=0;pointerEvents=1;fontSize=16;" vertex="1" parent="Y3nn_n9hX_ELQsI9iIvF-114">
          <mxGeometry x="343" width="667" height="47" as="geometry">
            <mxRectangle width="667" height="47" as="alternateBounds" />
          </mxGeometry>
        </mxCell>
        <mxCell id="Y3nn_n9hX_ELQsI9iIvF-117" style="shape=tableRow;horizontal=0;startSize=0;swimlaneHead=0;swimlaneBody=0;strokeColor=inherit;top=0;left=0;bottom=0;right=0;collapsible=0;dropTarget=0;fillColor=none;points=[[0,0.5],[1,0.5]];portConstraint=eastwest;fontSize=16;" vertex="1" parent="Y3nn_n9hX_ELQsI9iIvF-53">
          <mxGeometry y="234" width="1010" height="47" as="geometry" />
        </mxCell>
        <mxCell id="Y3nn_n9hX_ELQsI9iIvF-118" value="天翼云ZOS" style="shape=partialRectangle;html=1;whiteSpace=wrap;connectable=0;strokeColor=inherit;overflow=hidden;fillColor=none;top=0;left=0;bottom=0;right=0;pointerEvents=1;fontSize=16;" vertex="1" parent="Y3nn_n9hX_ELQsI9iIvF-117">
          <mxGeometry width="343" height="47" as="geometry">
            <mxRectangle width="343" height="47" as="alternateBounds" />
          </mxGeometry>
        </mxCell>
        <mxCell id="Y3nn_n9hX_ELQsI9iIvF-119" value="https://www.ctyun.cn/document/10026735/10181756" style="shape=partialRectangle;html=1;whiteSpace=wrap;connectable=0;strokeColor=inherit;overflow=hidden;fillColor=none;top=0;left=0;bottom=0;right=0;pointerEvents=1;fontSize=16;" vertex="1" parent="Y3nn_n9hX_ELQsI9iIvF-117">
          <mxGeometry x="343" width="667" height="47" as="geometry">
            <mxRectangle width="667" height="47" as="alternateBounds" />
          </mxGeometry>
        </mxCell>
        <mxCell id="Y3nn_n9hX_ELQsI9iIvF-69" value="&lt;h1 style=&quot;margin: 30px 0px 10px; font-weight: 300; line-height: 60%; padding: 0px; scroll-margin-top: 100px; text-align: start; background-color: rgb(255, 255, 255);&quot; id=&quot;UsingDSSEncryption&quot; class=&quot;topictitle&quot;&gt;&lt;font color=&quot;#16191f&quot; face=&quot;Helvetica&quot; style=&quot;font-size: 12px;&quot;&gt;AWS KMS 密钥的双层服务器端加密DSSE-KMS&lt;/font&gt;&lt;/h1&gt;" style="whiteSpace=wrap;html=1;rounded=0;verticalAlign=middle;spacing=0;" vertex="1" parent="1">
          <mxGeometry x="340" y="630" width="230" height="60" as="geometry" />
        </mxCell>
        <mxCell id="Y3nn_n9hX_ELQsI9iIvF-71" value="客户端提供加密密钥SSE-C" style="whiteSpace=wrap;html=1;rounded=0;" vertex="1" parent="1">
          <mxGeometry x="340" y="700" width="230" height="60" as="geometry" />
        </mxCell>
        <mxCell id="Y3nn_n9hX_ELQsI9iIvF-76" style="edgeStyle=orthogonalEdgeStyle;rounded=0;orthogonalLoop=1;jettySize=auto;html=1;exitX=1;exitY=0.5;exitDx=0;exitDy=0;entryX=0;entryY=0.5;entryDx=0;entryDy=0;" edge="1" parent="1" source="Y3nn_n9hX_ELQsI9iIvF-73" target="Y3nn_n9hX_ELQsI9iIvF-75">
          <mxGeometry relative="1" as="geometry" />
        </mxCell>
        <mxCell id="Y3nn_n9hX_ELQsI9iIvF-73" value="服务端加密SSE" style="whiteSpace=wrap;html=1;rounded=0;" vertex="1" parent="1">
          <mxGeometry x="190" y="810" width="120" height="60" as="geometry" />
        </mxCell>
        <mxCell id="Y3nn_n9hX_ELQsI9iIvF-75" value="在客户端本地加密数据" style="whiteSpace=wrap;html=1;rounded=0;" vertex="1" parent="1">
          <mxGeometry x="340" y="810" width="230" height="60" as="geometry" />
        </mxCell>
        <mxCell id="Y3nn_n9hX_ELQsI9iIvF-81" style="rounded=0;orthogonalLoop=1;jettySize=auto;html=1;exitX=1;exitY=0.5;exitDx=0;exitDy=0;entryX=0;entryY=0.5;entryDx=0;entryDy=0;" edge="1" parent="1" source="Y3nn_n9hX_ELQsI9iIvF-79" target="Y3nn_n9hX_ELQsI9iIvF-80">
          <mxGeometry relative="1" as="geometry" />
        </mxCell>
        <mxCell id="Y3nn_n9hX_ELQsI9iIvF-93" style="rounded=0;orthogonalLoop=1;jettySize=auto;html=1;exitX=1;exitY=0.5;exitDx=0;exitDy=0;" edge="1" parent="1" source="Y3nn_n9hX_ELQsI9iIvF-79">
          <mxGeometry relative="1" as="geometry">
            <mxPoint x="190" y="1110" as="targetPoint" />
          </mxGeometry>
        </mxCell>
        <mxCell id="Y3nn_n9hX_ELQsI9iIvF-79" value="微软AZURE（默认已为所有存储帐号提供azure存储加密，无需修改代码）" style="rounded=0;whiteSpace=wrap;html=1;" vertex="1" parent="1">
          <mxGeometry x="20" y="980" width="120" height="60" as="geometry" />
        </mxCell>
        <mxCell id="Y3nn_n9hX_ELQsI9iIvF-84" style="rounded=0;orthogonalLoop=1;jettySize=auto;html=1;exitX=1;exitY=0.5;exitDx=0;exitDy=0;entryX=0;entryY=0.5;entryDx=0;entryDy=0;" edge="1" parent="1" source="Y3nn_n9hX_ELQsI9iIvF-80" target="Y3nn_n9hX_ELQsI9iIvF-82">
          <mxGeometry relative="1" as="geometry" />
        </mxCell>
        <mxCell id="Y3nn_n9hX_ELQsI9iIvF-87" style="rounded=0;orthogonalLoop=1;jettySize=auto;html=1;exitX=1;exitY=0.5;exitDx=0;exitDy=0;entryX=0;entryY=0.5;entryDx=0;entryDy=0;" edge="1" parent="1" source="Y3nn_n9hX_ELQsI9iIvF-80" target="Y3nn_n9hX_ELQsI9iIvF-85">
          <mxGeometry relative="1" as="geometry" />
        </mxCell>
        <mxCell id="Y3nn_n9hX_ELQsI9iIvF-88" style="rounded=0;orthogonalLoop=1;jettySize=auto;html=1;exitX=1;exitY=0.5;exitDx=0;exitDy=0;entryX=0;entryY=0.5;entryDx=0;entryDy=0;" edge="1" parent="1" source="Y3nn_n9hX_ELQsI9iIvF-80" target="Y3nn_n9hX_ELQsI9iIvF-86">
          <mxGeometry relative="1" as="geometry" />
        </mxCell>
        <mxCell id="Y3nn_n9hX_ELQsI9iIvF-80" value="服务端加密SSE" style="whiteSpace=wrap;html=1;rounded=0;" vertex="1" parent="1">
          <mxGeometry x="190" y="940" width="120" height="60" as="geometry" />
        </mxCell>
        <mxCell id="Y3nn_n9hX_ELQsI9iIvF-82" value="微软管理的密钥（默认）" style="whiteSpace=wrap;html=1;rounded=0;fillColor=#d80073;fontColor=#ffffff;strokeColor=#A50040;" vertex="1" parent="1">
          <mxGeometry x="340" y="890" width="230" height="50" as="geometry" />
        </mxCell>
        <mxCell id="Y3nn_n9hX_ELQsI9iIvF-90" style="rounded=0;orthogonalLoop=1;jettySize=auto;html=1;exitX=1;exitY=0.5;exitDx=0;exitDy=0;entryX=0;entryY=0.5;entryDx=0;entryDy=0;" edge="1" parent="1" source="Y3nn_n9hX_ELQsI9iIvF-85" target="Y3nn_n9hX_ELQsI9iIvF-89">
          <mxGeometry relative="1" as="geometry" />
        </mxCell>
        <mxCell id="Y3nn_n9hX_ELQsI9iIvF-92" style="rounded=0;orthogonalLoop=1;jettySize=auto;html=1;exitX=1;exitY=0.5;exitDx=0;exitDy=0;entryX=0;entryY=0.5;entryDx=0;entryDy=0;" edge="1" parent="1" source="Y3nn_n9hX_ELQsI9iIvF-85" target="Y3nn_n9hX_ELQsI9iIvF-91">
          <mxGeometry relative="1" as="geometry" />
        </mxCell>
        <mxCell id="Y3nn_n9hX_ELQsI9iIvF-85" value="客户管理的密钥" style="whiteSpace=wrap;html=1;rounded=0;" vertex="1" parent="1">
          <mxGeometry x="340" y="960" width="230" height="50" as="geometry" />
        </mxCell>
        <mxCell id="Y3nn_n9hX_ELQsI9iIvF-86" value="客户提供的密钥" style="whiteSpace=wrap;html=1;rounded=0;" vertex="1" parent="1">
          <mxGeometry x="340" y="1030" width="230" height="50" as="geometry" />
        </mxCell>
        <mxCell id="Y3nn_n9hX_ELQsI9iIvF-89" value="AZURE KEYVAULT配置客户管理密钥" style="whiteSpace=wrap;html=1;rounded=0;" vertex="1" parent="1">
          <mxGeometry x="680" y="910" width="230" height="50" as="geometry" />
        </mxCell>
        <mxCell id="Y3nn_n9hX_ELQsI9iIvF-91" value="托管硬件安全模型HSM配置客户管理密钥" style="whiteSpace=wrap;html=1;rounded=0;" vertex="1" parent="1">
          <mxGeometry x="680" y="980" width="230" height="50" as="geometry" />
        </mxCell>
        <mxCell id="Y3nn_n9hX_ELQsI9iIvF-94" value="客户端加密SSE" style="whiteSpace=wrap;html=1;rounded=0;" vertex="1" parent="1">
          <mxGeometry x="190" y="1080" width="120" height="60" as="geometry" />
        </mxCell>
        <mxCell id="Y3nn_n9hX_ELQsI9iIvF-97" style="edgeStyle=orthogonalEdgeStyle;rounded=0;orthogonalLoop=1;jettySize=auto;html=1;exitX=1;exitY=0.5;exitDx=0;exitDy=0;entryX=0;entryY=0.5;entryDx=0;entryDy=0;" edge="1" parent="1" source="Y3nn_n9hX_ELQsI9iIvF-95" target="Y3nn_n9hX_ELQsI9iIvF-96">
          <mxGeometry relative="1" as="geometry" />
        </mxCell>
        <mxCell id="Y3nn_n9hX_ELQsI9iIvF-95" value="腾讯云COS" style="rounded=0;whiteSpace=wrap;html=1;" vertex="1" parent="1">
          <mxGeometry x="20" y="1290" width="110" height="60" as="geometry" />
        </mxCell>
        <mxCell id="Y3nn_n9hX_ELQsI9iIvF-101" style="rounded=0;orthogonalLoop=1;jettySize=auto;html=1;exitX=1;exitY=0.5;exitDx=0;exitDy=0;entryX=0;entryY=0.5;entryDx=0;entryDy=0;" edge="1" parent="1" source="Y3nn_n9hX_ELQsI9iIvF-96" target="Y3nn_n9hX_ELQsI9iIvF-98">
          <mxGeometry relative="1" as="geometry" />
        </mxCell>
        <mxCell id="Y3nn_n9hX_ELQsI9iIvF-102" style="rounded=0;orthogonalLoop=1;jettySize=auto;html=1;exitX=1;exitY=0.5;exitDx=0;exitDy=0;entryX=0;entryY=0.5;entryDx=0;entryDy=0;" edge="1" parent="1" source="Y3nn_n9hX_ELQsI9iIvF-96" target="Y3nn_n9hX_ELQsI9iIvF-99">
          <mxGeometry relative="1" as="geometry" />
        </mxCell>
        <mxCell id="Y3nn_n9hX_ELQsI9iIvF-103" style="rounded=0;orthogonalLoop=1;jettySize=auto;html=1;exitX=1;exitY=0.5;exitDx=0;exitDy=0;entryX=0;entryY=0.5;entryDx=0;entryDy=0;" edge="1" parent="1" source="Y3nn_n9hX_ELQsI9iIvF-96" target="Y3nn_n9hX_ELQsI9iIvF-100">
          <mxGeometry relative="1" as="geometry" />
        </mxCell>
        <mxCell id="Y3nn_n9hX_ELQsI9iIvF-96" value="服务端加密SSE" style="whiteSpace=wrap;html=1;rounded=0;" vertex="1" parent="1">
          <mxGeometry x="190" y="1290" width="120" height="60" as="geometry" />
        </mxCell>
        <mxCell id="Y3nn_n9hX_ELQsI9iIvF-98" value="SSE-COS(COS托管密钥的服务端加密，使用多因素强加密，确保使用唯一密钥加密每个对象；使用AES256；定期轮换主密钥加密密钥)" style="whiteSpace=wrap;html=1;rounded=0;fillColor=#d80073;fontColor=#ffffff;strokeColor=#A50040;" vertex="1" parent="1">
          <mxGeometry x="340" y="1190" width="240" height="70" as="geometry" />
        </mxCell>
        <mxCell id="Y3nn_n9hX_ELQsI9iIvF-99" value="SSE-KMS（使用KMS托管密钥的服务端加密;使用第三方认证的硬件安全模块HSM来创建和管理密钥；前提：需要开头KMS服务）" style="whiteSpace=wrap;html=1;rounded=0;" vertex="1" parent="1">
          <mxGeometry x="340" y="1295" width="240" height="55" as="geometry" />
        </mxCell>
        <mxCell id="Y3nn_n9hX_ELQsI9iIvF-100" value="SSE-C（用户自定义密钥的服务端加密）" style="whiteSpace=wrap;html=1;rounded=0;" vertex="1" parent="1">
          <mxGeometry x="340" y="1390" width="240" height="50" as="geometry" />
        </mxCell>
        <mxCell id="Y3nn_n9hX_ELQsI9iIvF-106" style="edgeStyle=orthogonalEdgeStyle;rounded=0;orthogonalLoop=1;jettySize=auto;html=1;exitX=1;exitY=0.5;exitDx=0;exitDy=0;entryX=0;entryY=0.5;entryDx=0;entryDy=0;" edge="1" parent="1" source="Y3nn_n9hX_ELQsI9iIvF-104" target="Y3nn_n9hX_ELQsI9iIvF-105">
          <mxGeometry relative="1" as="geometry" />
        </mxCell>
        <mxCell id="Y3nn_n9hX_ELQsI9iIvF-104" value="华为云" style="rounded=0;whiteSpace=wrap;html=1;" vertex="1" parent="1">
          <mxGeometry x="20" y="1630" width="110" height="60" as="geometry" />
        </mxCell>
        <mxCell id="Y3nn_n9hX_ELQsI9iIvF-111" style="rounded=0;orthogonalLoop=1;jettySize=auto;html=1;exitX=1;exitY=0.5;exitDx=0;exitDy=0;entryX=0;entryY=0.5;entryDx=0;entryDy=0;" edge="1" parent="1" source="Y3nn_n9hX_ELQsI9iIvF-105" target="Y3nn_n9hX_ELQsI9iIvF-108">
          <mxGeometry relative="1" as="geometry" />
        </mxCell>
        <mxCell id="Y3nn_n9hX_ELQsI9iIvF-112" style="edgeStyle=orthogonalEdgeStyle;rounded=0;orthogonalLoop=1;jettySize=auto;html=1;exitX=1;exitY=0.5;exitDx=0;exitDy=0;entryX=0;entryY=0.5;entryDx=0;entryDy=0;" edge="1" parent="1" source="Y3nn_n9hX_ELQsI9iIvF-105" target="Y3nn_n9hX_ELQsI9iIvF-109">
          <mxGeometry relative="1" as="geometry" />
        </mxCell>
        <mxCell id="Y3nn_n9hX_ELQsI9iIvF-113" style="rounded=0;orthogonalLoop=1;jettySize=auto;html=1;exitX=1;exitY=0.5;exitDx=0;exitDy=0;entryX=0;entryY=0.5;entryDx=0;entryDy=0;" edge="1" parent="1" source="Y3nn_n9hX_ELQsI9iIvF-105" target="Y3nn_n9hX_ELQsI9iIvF-110">
          <mxGeometry relative="1" as="geometry" />
        </mxCell>
        <mxCell id="Y3nn_n9hX_ELQsI9iIvF-105" value="服务端加密SSE" style="whiteSpace=wrap;html=1;rounded=0;" vertex="1" parent="1">
          <mxGeometry x="200" y="1630" width="120" height="60" as="geometry" />
        </mxCell>
        <mxCell id="Y3nn_n9hX_ELQsI9iIvF-108" value="SSE-OBS(COS托管密钥的服务端加密，使用多因素强加密，确保使用唯一密钥加密每个对象；使用AES256；定期轮换主密钥加密密钥)" style="whiteSpace=wrap;html=1;rounded=0;" vertex="1" parent="1">
          <mxGeometry x="385" y="1510" width="240" height="70" as="geometry" />
        </mxCell>
        <mxCell id="Y3nn_n9hX_ELQsI9iIvF-109" value="SSE-KMS（使用KMS托管密钥的服务端加密,用户密钥不会明文出现在HSM之外，密钥所有操作会做权限控制和日志跟踪）" style="whiteSpace=wrap;html=1;rounded=0;" vertex="1" parent="1">
          <mxGeometry x="385" y="1632.5" width="240" height="55" as="geometry" />
        </mxCell>
        <mxCell id="Y3nn_n9hX_ELQsI9iIvF-110" value="SSE-C（用户自定义密钥的服务端加密）" style="whiteSpace=wrap;html=1;rounded=0;fillColor=#d80073;fontColor=#ffffff;strokeColor=#A50040;" vertex="1" parent="1">
          <mxGeometry x="385" y="1740" width="240" height="50" as="geometry" />
        </mxCell>
        <mxCell id="Y3nn_n9hX_ELQsI9iIvF-122" style="edgeStyle=orthogonalEdgeStyle;rounded=0;orthogonalLoop=1;jettySize=auto;html=1;exitX=1;exitY=0.5;exitDx=0;exitDy=0;" edge="1" parent="1" source="Y3nn_n9hX_ELQsI9iIvF-120" target="Y3nn_n9hX_ELQsI9iIvF-121">
          <mxGeometry relative="1" as="geometry" />
        </mxCell>
        <mxCell id="Y3nn_n9hX_ELQsI9iIvF-120" value="天翼云ZOS" style="rounded=0;whiteSpace=wrap;html=1;" vertex="1" parent="1">
          <mxGeometry x="20" y="1910" width="110" height="60" as="geometry" />
        </mxCell>
        <mxCell id="Y3nn_n9hX_ELQsI9iIvF-121" value="服务端加密SSE（全局桶的加密方式 API OR 控制台）" style="whiteSpace=wrap;html=1;rounded=0;" vertex="1" parent="1">
          <mxGeometry x="200" y="1910" width="120" height="60" as="geometry" />
        </mxCell>
      </root>
    </mxGraphModel>
  </diagram>
</mxfile>
